G75*
%MOIN*%
%OFA0B0*%
%FSLAX25Y25*%
%IPPOS*%
%LPD*%
%AMOC8*
5,1,8,0,0,1.08239X$1,22.5*
%
%ADD10OC8,0.06900*%
%ADD11C,0.06900*%
%ADD12OC8,0.07200*%
%ADD13C,0.05400*%
%ADD14R,0.14380X0.07293*%
%ADD15OC8,0.05400*%
%ADD16R,0.24222X0.04537*%
%ADD17R,0.06200X0.06200*%
D10*
X0061150Y0035500D03*
X0121150Y0025500D03*
D11*
X0121150Y0035500D03*
X0061150Y0025500D03*
D12*
X0078650Y0025500D03*
X0078650Y0035500D03*
X0093650Y0033000D03*
X0098650Y0025500D03*
X0103650Y0033000D03*
D13*
X0106250Y0050500D02*
X0111050Y0050500D01*
X0111050Y0060500D02*
X0106250Y0060500D01*
X0106250Y0070500D02*
X0111050Y0070500D01*
X0111050Y0080500D02*
X0106250Y0080500D01*
X0106250Y0090500D02*
X0111050Y0090500D01*
X0111050Y0100500D02*
X0106250Y0100500D01*
X0106250Y0110500D02*
X0111050Y0110500D01*
X0081050Y0110500D02*
X0076250Y0110500D01*
X0076250Y0100500D02*
X0081050Y0100500D01*
X0081050Y0090500D02*
X0076250Y0090500D01*
X0076250Y0080500D02*
X0081050Y0080500D01*
X0081050Y0070500D02*
X0076250Y0070500D01*
X0076250Y0060500D02*
X0081050Y0060500D01*
X0081050Y0050500D02*
X0076250Y0050500D01*
D14*
X0055598Y0046401D03*
X0055598Y0057199D03*
X0055599Y0068000D03*
X0055598Y0078801D03*
X0055598Y0089599D03*
D15*
X0056150Y0100500D03*
X0066150Y0100500D03*
X0066150Y0110500D03*
X0056150Y0110500D03*
X0123650Y0110500D03*
X0123650Y0100500D03*
X0138650Y0100500D03*
X0138650Y0110500D03*
D16*
X0134900Y0075874D03*
X0134900Y0060126D03*
D17*
X0093650Y0100500D03*
M02*
