G75*
%MOIN*%
%OFA0B0*%
%FSLAX25Y25*%
%IPPOS*%
%LPD*%
%AMOC8*
5,1,8,0,0,1.08239X$1,22.5*
%
%ADD10C,0.00000*%
%ADD11C,0.00600*%
%ADD12C,0.00400*%
%ADD13C,0.01200*%
%ADD14C,0.00500*%
%ADD15R,0.02000X1.22000*%
%ADD16R,0.06299X0.72441*%
%ADD17C,0.01000*%
%ADD18C,0.02000*%
%ADD19C,0.00050*%
D10*
X0048650Y0018000D02*
X0148650Y0018000D01*
X0148650Y0043850D01*
X0148650Y0092150D02*
X0148650Y0118000D01*
X0048650Y0118000D01*
X0048650Y0018000D01*
D11*
X0029800Y0027000D02*
X0027800Y0027000D01*
X0029800Y0027000D02*
X0029800Y0027500D01*
X0039300Y0027500D01*
X0039398Y0027502D01*
X0039496Y0027508D01*
X0039594Y0027517D01*
X0039691Y0027531D01*
X0039788Y0027548D01*
X0039884Y0027569D01*
X0039979Y0027594D01*
X0040073Y0027622D01*
X0040165Y0027655D01*
X0040257Y0027690D01*
X0040347Y0027730D01*
X0040435Y0027772D01*
X0040522Y0027819D01*
X0040606Y0027868D01*
X0040689Y0027921D01*
X0040769Y0027977D01*
X0040848Y0028037D01*
X0040924Y0028099D01*
X0040997Y0028164D01*
X0041068Y0028232D01*
X0041136Y0028303D01*
X0041201Y0028376D01*
X0041263Y0028452D01*
X0041323Y0028531D01*
X0041379Y0028611D01*
X0041432Y0028694D01*
X0041481Y0028778D01*
X0041528Y0028865D01*
X0041570Y0028953D01*
X0041610Y0029043D01*
X0041645Y0029135D01*
X0041678Y0029227D01*
X0041706Y0029321D01*
X0041731Y0029416D01*
X0041752Y0029512D01*
X0041769Y0029609D01*
X0041783Y0029706D01*
X0041792Y0029804D01*
X0041798Y0029902D01*
X0041800Y0030000D01*
X0041800Y0029925D02*
X0041800Y0106075D01*
X0041800Y0106000D02*
X0041798Y0106098D01*
X0041792Y0106196D01*
X0041783Y0106294D01*
X0041769Y0106391D01*
X0041752Y0106488D01*
X0041731Y0106584D01*
X0041706Y0106679D01*
X0041678Y0106773D01*
X0041645Y0106865D01*
X0041610Y0106957D01*
X0041570Y0107047D01*
X0041528Y0107135D01*
X0041481Y0107222D01*
X0041432Y0107306D01*
X0041379Y0107389D01*
X0041323Y0107469D01*
X0041263Y0107548D01*
X0041201Y0107624D01*
X0041136Y0107697D01*
X0041068Y0107768D01*
X0040997Y0107836D01*
X0040924Y0107901D01*
X0040848Y0107963D01*
X0040769Y0108023D01*
X0040689Y0108079D01*
X0040606Y0108132D01*
X0040522Y0108181D01*
X0040435Y0108228D01*
X0040347Y0108270D01*
X0040257Y0108310D01*
X0040165Y0108345D01*
X0040073Y0108378D01*
X0039979Y0108406D01*
X0039884Y0108431D01*
X0039788Y0108452D01*
X0039691Y0108469D01*
X0039594Y0108483D01*
X0039496Y0108492D01*
X0039398Y0108498D01*
X0039300Y0108500D01*
X0029800Y0108500D01*
X0029800Y0109000D01*
X0027800Y0109000D01*
X0026587Y0102500D02*
X0026585Y0102402D01*
X0026579Y0102304D01*
X0026570Y0102206D01*
X0026556Y0102109D01*
X0026539Y0102012D01*
X0026518Y0101916D01*
X0026493Y0101821D01*
X0026465Y0101727D01*
X0026432Y0101635D01*
X0026397Y0101543D01*
X0026357Y0101453D01*
X0026315Y0101365D01*
X0026268Y0101278D01*
X0026219Y0101194D01*
X0026166Y0101111D01*
X0026110Y0101031D01*
X0026050Y0100952D01*
X0025988Y0100876D01*
X0025923Y0100803D01*
X0025855Y0100732D01*
X0025784Y0100664D01*
X0025711Y0100599D01*
X0025635Y0100537D01*
X0025556Y0100477D01*
X0025476Y0100421D01*
X0025393Y0100368D01*
X0025309Y0100319D01*
X0025222Y0100272D01*
X0025134Y0100230D01*
X0025044Y0100190D01*
X0024952Y0100155D01*
X0024860Y0100122D01*
X0024766Y0100094D01*
X0024671Y0100069D01*
X0024575Y0100048D01*
X0024478Y0100031D01*
X0024381Y0100017D01*
X0024283Y0100008D01*
X0024185Y0100002D01*
X0024087Y0100000D01*
X0003300Y0100000D01*
X0003213Y0099998D01*
X0003126Y0099992D01*
X0003039Y0099983D01*
X0002953Y0099970D01*
X0002867Y0099953D01*
X0002782Y0099932D01*
X0002699Y0099907D01*
X0002616Y0099879D01*
X0002535Y0099848D01*
X0002455Y0099813D01*
X0002377Y0099774D01*
X0002300Y0099732D01*
X0002225Y0099687D01*
X0002153Y0099638D01*
X0002082Y0099587D01*
X0002014Y0099532D01*
X0001949Y0099475D01*
X0001886Y0099414D01*
X0001825Y0099351D01*
X0001768Y0099286D01*
X0001713Y0099218D01*
X0001662Y0099147D01*
X0001613Y0099075D01*
X0001568Y0099000D01*
X0001526Y0098923D01*
X0001487Y0098845D01*
X0001452Y0098765D01*
X0001421Y0098684D01*
X0001393Y0098601D01*
X0001368Y0098518D01*
X0001347Y0098433D01*
X0001330Y0098347D01*
X0001317Y0098261D01*
X0001308Y0098174D01*
X0001302Y0098087D01*
X0001300Y0098000D01*
X0001300Y0038000D01*
X0001302Y0037913D01*
X0001308Y0037826D01*
X0001317Y0037739D01*
X0001330Y0037653D01*
X0001347Y0037567D01*
X0001368Y0037482D01*
X0001393Y0037399D01*
X0001421Y0037316D01*
X0001452Y0037235D01*
X0001487Y0037155D01*
X0001526Y0037077D01*
X0001568Y0037000D01*
X0001613Y0036925D01*
X0001662Y0036853D01*
X0001713Y0036782D01*
X0001768Y0036714D01*
X0001825Y0036649D01*
X0001886Y0036586D01*
X0001949Y0036525D01*
X0002014Y0036468D01*
X0002082Y0036413D01*
X0002153Y0036362D01*
X0002225Y0036313D01*
X0002300Y0036268D01*
X0002377Y0036226D01*
X0002455Y0036187D01*
X0002535Y0036152D01*
X0002616Y0036121D01*
X0002699Y0036093D01*
X0002782Y0036068D01*
X0002867Y0036047D01*
X0002953Y0036030D01*
X0003039Y0036017D01*
X0003126Y0036008D01*
X0003213Y0036002D01*
X0003300Y0036000D01*
X0024087Y0036000D01*
X0024185Y0035998D01*
X0024283Y0035992D01*
X0024381Y0035983D01*
X0024478Y0035969D01*
X0024575Y0035952D01*
X0024671Y0035931D01*
X0024766Y0035906D01*
X0024860Y0035878D01*
X0024952Y0035845D01*
X0025044Y0035810D01*
X0025134Y0035770D01*
X0025222Y0035728D01*
X0025309Y0035681D01*
X0025393Y0035632D01*
X0025476Y0035579D01*
X0025556Y0035523D01*
X0025635Y0035463D01*
X0025711Y0035401D01*
X0025784Y0035336D01*
X0025855Y0035268D01*
X0025923Y0035197D01*
X0025988Y0035124D01*
X0026050Y0035048D01*
X0026110Y0034969D01*
X0026166Y0034889D01*
X0026219Y0034806D01*
X0026268Y0034722D01*
X0026315Y0034635D01*
X0026357Y0034547D01*
X0026397Y0034457D01*
X0026432Y0034365D01*
X0026465Y0034273D01*
X0026493Y0034179D01*
X0026518Y0034084D01*
X0026539Y0033988D01*
X0026556Y0033891D01*
X0026570Y0033794D01*
X0026579Y0033696D01*
X0026585Y0033598D01*
X0026587Y0033500D01*
X0055150Y0025000D02*
X0056150Y0025000D01*
X0056150Y0026000D01*
X0056150Y0025000D02*
X0057150Y0025000D01*
X0056150Y0025000D02*
X0056150Y0024000D01*
X0051150Y0030500D02*
X0051153Y0030745D01*
X0051162Y0030991D01*
X0051177Y0031236D01*
X0051198Y0031480D01*
X0051225Y0031724D01*
X0051258Y0031967D01*
X0051297Y0032210D01*
X0051342Y0032451D01*
X0051393Y0032691D01*
X0051450Y0032930D01*
X0051512Y0033167D01*
X0051581Y0033403D01*
X0051655Y0033637D01*
X0051735Y0033869D01*
X0051820Y0034099D01*
X0051911Y0034327D01*
X0052008Y0034552D01*
X0052110Y0034776D01*
X0052218Y0034996D01*
X0052331Y0035214D01*
X0052449Y0035429D01*
X0052573Y0035641D01*
X0052701Y0035850D01*
X0052835Y0036056D01*
X0052974Y0036258D01*
X0053118Y0036457D01*
X0053267Y0036652D01*
X0053420Y0036844D01*
X0053578Y0037032D01*
X0053740Y0037216D01*
X0053908Y0037395D01*
X0054079Y0037571D01*
X0054255Y0037742D01*
X0054434Y0037910D01*
X0054618Y0038072D01*
X0054806Y0038230D01*
X0054998Y0038383D01*
X0055193Y0038532D01*
X0055392Y0038676D01*
X0055594Y0038815D01*
X0055800Y0038949D01*
X0056009Y0039077D01*
X0056221Y0039201D01*
X0056436Y0039319D01*
X0056654Y0039432D01*
X0056874Y0039540D01*
X0057098Y0039642D01*
X0057323Y0039739D01*
X0057551Y0039830D01*
X0057781Y0039915D01*
X0058013Y0039995D01*
X0058247Y0040069D01*
X0058483Y0040138D01*
X0058720Y0040200D01*
X0058959Y0040257D01*
X0059199Y0040308D01*
X0059440Y0040353D01*
X0059683Y0040392D01*
X0059926Y0040425D01*
X0060170Y0040452D01*
X0060414Y0040473D01*
X0060659Y0040488D01*
X0060905Y0040497D01*
X0061150Y0040500D01*
X0061395Y0040497D01*
X0061641Y0040488D01*
X0061886Y0040473D01*
X0062130Y0040452D01*
X0062374Y0040425D01*
X0062617Y0040392D01*
X0062860Y0040353D01*
X0063101Y0040308D01*
X0063341Y0040257D01*
X0063580Y0040200D01*
X0063817Y0040138D01*
X0064053Y0040069D01*
X0064287Y0039995D01*
X0064519Y0039915D01*
X0064749Y0039830D01*
X0064977Y0039739D01*
X0065202Y0039642D01*
X0065426Y0039540D01*
X0065646Y0039432D01*
X0065864Y0039319D01*
X0066079Y0039201D01*
X0066291Y0039077D01*
X0066500Y0038949D01*
X0066706Y0038815D01*
X0066908Y0038676D01*
X0067107Y0038532D01*
X0067302Y0038383D01*
X0067494Y0038230D01*
X0067682Y0038072D01*
X0067866Y0037910D01*
X0068045Y0037742D01*
X0068221Y0037571D01*
X0068392Y0037395D01*
X0068560Y0037216D01*
X0068722Y0037032D01*
X0068880Y0036844D01*
X0069033Y0036652D01*
X0069182Y0036457D01*
X0069326Y0036258D01*
X0069465Y0036056D01*
X0069599Y0035850D01*
X0069727Y0035641D01*
X0069851Y0035429D01*
X0069969Y0035214D01*
X0070082Y0034996D01*
X0070190Y0034776D01*
X0070292Y0034552D01*
X0070389Y0034327D01*
X0070480Y0034099D01*
X0070565Y0033869D01*
X0070645Y0033637D01*
X0070719Y0033403D01*
X0070788Y0033167D01*
X0070850Y0032930D01*
X0070907Y0032691D01*
X0070958Y0032451D01*
X0071003Y0032210D01*
X0071042Y0031967D01*
X0071075Y0031724D01*
X0071102Y0031480D01*
X0071123Y0031236D01*
X0071138Y0030991D01*
X0071147Y0030745D01*
X0071150Y0030500D01*
X0071147Y0030255D01*
X0071138Y0030009D01*
X0071123Y0029764D01*
X0071102Y0029520D01*
X0071075Y0029276D01*
X0071042Y0029033D01*
X0071003Y0028790D01*
X0070958Y0028549D01*
X0070907Y0028309D01*
X0070850Y0028070D01*
X0070788Y0027833D01*
X0070719Y0027597D01*
X0070645Y0027363D01*
X0070565Y0027131D01*
X0070480Y0026901D01*
X0070389Y0026673D01*
X0070292Y0026448D01*
X0070190Y0026224D01*
X0070082Y0026004D01*
X0069969Y0025786D01*
X0069851Y0025571D01*
X0069727Y0025359D01*
X0069599Y0025150D01*
X0069465Y0024944D01*
X0069326Y0024742D01*
X0069182Y0024543D01*
X0069033Y0024348D01*
X0068880Y0024156D01*
X0068722Y0023968D01*
X0068560Y0023784D01*
X0068392Y0023605D01*
X0068221Y0023429D01*
X0068045Y0023258D01*
X0067866Y0023090D01*
X0067682Y0022928D01*
X0067494Y0022770D01*
X0067302Y0022617D01*
X0067107Y0022468D01*
X0066908Y0022324D01*
X0066706Y0022185D01*
X0066500Y0022051D01*
X0066291Y0021923D01*
X0066079Y0021799D01*
X0065864Y0021681D01*
X0065646Y0021568D01*
X0065426Y0021460D01*
X0065202Y0021358D01*
X0064977Y0021261D01*
X0064749Y0021170D01*
X0064519Y0021085D01*
X0064287Y0021005D01*
X0064053Y0020931D01*
X0063817Y0020862D01*
X0063580Y0020800D01*
X0063341Y0020743D01*
X0063101Y0020692D01*
X0062860Y0020647D01*
X0062617Y0020608D01*
X0062374Y0020575D01*
X0062130Y0020548D01*
X0061886Y0020527D01*
X0061641Y0020512D01*
X0061395Y0020503D01*
X0061150Y0020500D01*
X0060905Y0020503D01*
X0060659Y0020512D01*
X0060414Y0020527D01*
X0060170Y0020548D01*
X0059926Y0020575D01*
X0059683Y0020608D01*
X0059440Y0020647D01*
X0059199Y0020692D01*
X0058959Y0020743D01*
X0058720Y0020800D01*
X0058483Y0020862D01*
X0058247Y0020931D01*
X0058013Y0021005D01*
X0057781Y0021085D01*
X0057551Y0021170D01*
X0057323Y0021261D01*
X0057098Y0021358D01*
X0056874Y0021460D01*
X0056654Y0021568D01*
X0056436Y0021681D01*
X0056221Y0021799D01*
X0056009Y0021923D01*
X0055800Y0022051D01*
X0055594Y0022185D01*
X0055392Y0022324D01*
X0055193Y0022468D01*
X0054998Y0022617D01*
X0054806Y0022770D01*
X0054618Y0022928D01*
X0054434Y0023090D01*
X0054255Y0023258D01*
X0054079Y0023429D01*
X0053908Y0023605D01*
X0053740Y0023784D01*
X0053578Y0023968D01*
X0053420Y0024156D01*
X0053267Y0024348D01*
X0053118Y0024543D01*
X0052974Y0024742D01*
X0052835Y0024944D01*
X0052701Y0025150D01*
X0052573Y0025359D01*
X0052449Y0025571D01*
X0052331Y0025786D01*
X0052218Y0026004D01*
X0052110Y0026224D01*
X0052008Y0026448D01*
X0051911Y0026673D01*
X0051820Y0026901D01*
X0051735Y0027131D01*
X0051655Y0027363D01*
X0051581Y0027597D01*
X0051512Y0027833D01*
X0051450Y0028070D01*
X0051393Y0028309D01*
X0051342Y0028549D01*
X0051297Y0028790D01*
X0051258Y0029033D01*
X0051225Y0029276D01*
X0051198Y0029520D01*
X0051177Y0029764D01*
X0051162Y0030009D01*
X0051153Y0030255D01*
X0051150Y0030500D01*
X0074150Y0037000D02*
X0074150Y0024000D01*
X0074152Y0023913D01*
X0074158Y0023826D01*
X0074167Y0023739D01*
X0074180Y0023653D01*
X0074197Y0023567D01*
X0074218Y0023482D01*
X0074243Y0023399D01*
X0074271Y0023316D01*
X0074302Y0023235D01*
X0074337Y0023155D01*
X0074376Y0023077D01*
X0074418Y0023000D01*
X0074463Y0022925D01*
X0074512Y0022853D01*
X0074563Y0022782D01*
X0074618Y0022714D01*
X0074675Y0022649D01*
X0074736Y0022586D01*
X0074799Y0022525D01*
X0074864Y0022468D01*
X0074932Y0022413D01*
X0075003Y0022362D01*
X0075075Y0022313D01*
X0075150Y0022268D01*
X0075227Y0022226D01*
X0075305Y0022187D01*
X0075385Y0022152D01*
X0075466Y0022121D01*
X0075549Y0022093D01*
X0075632Y0022068D01*
X0075717Y0022047D01*
X0075803Y0022030D01*
X0075889Y0022017D01*
X0075976Y0022008D01*
X0076063Y0022002D01*
X0076150Y0022000D01*
X0081150Y0022000D01*
X0081237Y0022002D01*
X0081324Y0022008D01*
X0081411Y0022017D01*
X0081497Y0022030D01*
X0081583Y0022047D01*
X0081668Y0022068D01*
X0081751Y0022093D01*
X0081834Y0022121D01*
X0081915Y0022152D01*
X0081995Y0022187D01*
X0082073Y0022226D01*
X0082150Y0022268D01*
X0082225Y0022313D01*
X0082297Y0022362D01*
X0082368Y0022413D01*
X0082436Y0022468D01*
X0082501Y0022525D01*
X0082564Y0022586D01*
X0082625Y0022649D01*
X0082682Y0022714D01*
X0082737Y0022782D01*
X0082788Y0022853D01*
X0082837Y0022925D01*
X0082882Y0023000D01*
X0082924Y0023077D01*
X0082963Y0023155D01*
X0082998Y0023235D01*
X0083029Y0023316D01*
X0083057Y0023399D01*
X0083082Y0023482D01*
X0083103Y0023567D01*
X0083120Y0023653D01*
X0083133Y0023739D01*
X0083142Y0023826D01*
X0083148Y0023913D01*
X0083150Y0024000D01*
X0083150Y0037000D01*
X0083148Y0037087D01*
X0083142Y0037174D01*
X0083133Y0037261D01*
X0083120Y0037347D01*
X0083103Y0037433D01*
X0083082Y0037518D01*
X0083057Y0037601D01*
X0083029Y0037684D01*
X0082998Y0037765D01*
X0082963Y0037845D01*
X0082924Y0037923D01*
X0082882Y0038000D01*
X0082837Y0038075D01*
X0082788Y0038147D01*
X0082737Y0038218D01*
X0082682Y0038286D01*
X0082625Y0038351D01*
X0082564Y0038414D01*
X0082501Y0038475D01*
X0082436Y0038532D01*
X0082368Y0038587D01*
X0082297Y0038638D01*
X0082225Y0038687D01*
X0082150Y0038732D01*
X0082073Y0038774D01*
X0081995Y0038813D01*
X0081915Y0038848D01*
X0081834Y0038879D01*
X0081751Y0038907D01*
X0081668Y0038932D01*
X0081583Y0038953D01*
X0081497Y0038970D01*
X0081411Y0038983D01*
X0081324Y0038992D01*
X0081237Y0038998D01*
X0081150Y0039000D01*
X0076150Y0039000D01*
X0076063Y0038998D01*
X0075976Y0038992D01*
X0075889Y0038983D01*
X0075803Y0038970D01*
X0075717Y0038953D01*
X0075632Y0038932D01*
X0075549Y0038907D01*
X0075466Y0038879D01*
X0075385Y0038848D01*
X0075305Y0038813D01*
X0075227Y0038774D01*
X0075150Y0038732D01*
X0075075Y0038687D01*
X0075003Y0038638D01*
X0074932Y0038587D01*
X0074864Y0038532D01*
X0074799Y0038475D01*
X0074736Y0038414D01*
X0074675Y0038351D01*
X0074618Y0038286D01*
X0074563Y0038218D01*
X0074512Y0038147D01*
X0074463Y0038075D01*
X0074418Y0038000D01*
X0074376Y0037923D01*
X0074337Y0037845D01*
X0074302Y0037765D01*
X0074271Y0037684D01*
X0074243Y0037601D01*
X0074218Y0037518D01*
X0074197Y0037433D01*
X0074180Y0037347D01*
X0074167Y0037261D01*
X0074158Y0037174D01*
X0074152Y0037087D01*
X0074150Y0037000D01*
X0082150Y0045500D02*
X0089650Y0045500D01*
X0089652Y0045626D01*
X0089658Y0045751D01*
X0089668Y0045876D01*
X0089682Y0046001D01*
X0089699Y0046126D01*
X0089721Y0046250D01*
X0089746Y0046373D01*
X0089776Y0046495D01*
X0089809Y0046616D01*
X0089846Y0046736D01*
X0089886Y0046855D01*
X0089931Y0046972D01*
X0089979Y0047089D01*
X0090031Y0047203D01*
X0090086Y0047316D01*
X0090145Y0047427D01*
X0090207Y0047536D01*
X0090273Y0047643D01*
X0090342Y0047748D01*
X0090414Y0047851D01*
X0090489Y0047952D01*
X0090568Y0048050D01*
X0090650Y0048145D01*
X0090734Y0048238D01*
X0090822Y0048328D01*
X0090912Y0048416D01*
X0091005Y0048500D01*
X0091100Y0048582D01*
X0091198Y0048661D01*
X0091299Y0048736D01*
X0091402Y0048808D01*
X0091507Y0048877D01*
X0091614Y0048943D01*
X0091723Y0049005D01*
X0091834Y0049064D01*
X0091947Y0049119D01*
X0092061Y0049171D01*
X0092178Y0049219D01*
X0092295Y0049264D01*
X0092414Y0049304D01*
X0092534Y0049341D01*
X0092655Y0049374D01*
X0092777Y0049404D01*
X0092900Y0049429D01*
X0093024Y0049451D01*
X0093149Y0049468D01*
X0093274Y0049482D01*
X0093399Y0049492D01*
X0093524Y0049498D01*
X0093650Y0049500D01*
X0093776Y0049498D01*
X0093901Y0049492D01*
X0094026Y0049482D01*
X0094151Y0049468D01*
X0094276Y0049451D01*
X0094400Y0049429D01*
X0094523Y0049404D01*
X0094645Y0049374D01*
X0094766Y0049341D01*
X0094886Y0049304D01*
X0095005Y0049264D01*
X0095122Y0049219D01*
X0095239Y0049171D01*
X0095353Y0049119D01*
X0095466Y0049064D01*
X0095577Y0049005D01*
X0095686Y0048943D01*
X0095793Y0048877D01*
X0095898Y0048808D01*
X0096001Y0048736D01*
X0096102Y0048661D01*
X0096200Y0048582D01*
X0096295Y0048500D01*
X0096388Y0048416D01*
X0096478Y0048328D01*
X0096566Y0048238D01*
X0096650Y0048145D01*
X0096732Y0048050D01*
X0096811Y0047952D01*
X0096886Y0047851D01*
X0096958Y0047748D01*
X0097027Y0047643D01*
X0097093Y0047536D01*
X0097155Y0047427D01*
X0097214Y0047316D01*
X0097269Y0047203D01*
X0097321Y0047089D01*
X0097369Y0046972D01*
X0097414Y0046855D01*
X0097454Y0046736D01*
X0097491Y0046616D01*
X0097524Y0046495D01*
X0097554Y0046373D01*
X0097579Y0046250D01*
X0097601Y0046126D01*
X0097618Y0046001D01*
X0097632Y0045876D01*
X0097642Y0045751D01*
X0097648Y0045626D01*
X0097650Y0045500D01*
X0105150Y0045500D01*
X0105150Y0115500D01*
X0082150Y0115500D01*
X0082150Y0045500D01*
X0090402Y0039500D02*
X0106898Y0039500D01*
X0107524Y0034000D02*
X0109103Y0034000D01*
X0106896Y0039500D02*
X0107051Y0039298D01*
X0107202Y0039093D01*
X0107347Y0038884D01*
X0107487Y0038671D01*
X0107622Y0038455D01*
X0107751Y0038236D01*
X0107875Y0038014D01*
X0107994Y0037789D01*
X0108108Y0037561D01*
X0108215Y0037331D01*
X0108317Y0037098D01*
X0108414Y0036862D01*
X0108505Y0036624D01*
X0108590Y0036384D01*
X0108669Y0036142D01*
X0108742Y0035899D01*
X0108809Y0035653D01*
X0108871Y0035406D01*
X0108926Y0035158D01*
X0108975Y0034908D01*
X0109018Y0034657D01*
X0109055Y0034406D01*
X0109086Y0034153D01*
X0109111Y0033900D01*
X0109130Y0033646D01*
X0109143Y0033392D01*
X0109149Y0033137D01*
X0109149Y0032883D01*
X0109143Y0032628D01*
X0109131Y0032374D01*
X0109113Y0032120D01*
X0109089Y0031867D01*
X0109058Y0031614D01*
X0109022Y0031363D01*
X0108979Y0031112D01*
X0108930Y0030862D01*
X0108875Y0030613D01*
X0108814Y0030366D01*
X0108748Y0030121D01*
X0108675Y0029877D01*
X0108596Y0029635D01*
X0108512Y0029395D01*
X0108421Y0029157D01*
X0108325Y0028921D01*
X0108224Y0028688D01*
X0108116Y0028457D01*
X0108003Y0028229D01*
X0107885Y0028004D01*
X0107761Y0027781D01*
X0107632Y0027562D01*
X0107498Y0027346D01*
X0107358Y0027133D01*
X0107213Y0026924D01*
X0107064Y0026718D01*
X0106909Y0026516D01*
X0106749Y0026318D01*
X0106585Y0026124D01*
X0106416Y0025933D01*
X0106242Y0025747D01*
X0106064Y0025565D01*
X0105882Y0025388D01*
X0105695Y0025215D01*
X0105505Y0025046D01*
X0105310Y0024882D01*
X0105111Y0024723D01*
X0104909Y0024569D01*
X0104703Y0024420D01*
X0104493Y0024276D01*
X0104280Y0024137D01*
X0104063Y0024003D01*
X0103844Y0023874D01*
X0103621Y0023751D01*
X0103395Y0023633D01*
X0103167Y0023521D01*
X0102936Y0023415D01*
X0102702Y0023313D01*
X0102466Y0023218D01*
X0102228Y0023128D01*
X0101988Y0023045D01*
X0101746Y0022967D01*
X0095552Y0022967D02*
X0095310Y0023045D01*
X0095070Y0023129D01*
X0094832Y0023218D01*
X0094596Y0023314D01*
X0094362Y0023415D01*
X0094131Y0023521D01*
X0093903Y0023634D01*
X0093677Y0023751D01*
X0093454Y0023874D01*
X0093235Y0024003D01*
X0093018Y0024137D01*
X0092805Y0024276D01*
X0092595Y0024420D01*
X0092389Y0024569D01*
X0092187Y0024723D01*
X0091988Y0024882D01*
X0091793Y0025046D01*
X0091602Y0025215D01*
X0091416Y0025388D01*
X0091233Y0025565D01*
X0091055Y0025747D01*
X0090882Y0025933D01*
X0090713Y0026124D01*
X0090549Y0026318D01*
X0090389Y0026516D01*
X0090234Y0026718D01*
X0090085Y0026924D01*
X0089940Y0027133D01*
X0089800Y0027346D01*
X0089666Y0027562D01*
X0089537Y0027782D01*
X0089413Y0028004D01*
X0089294Y0028229D01*
X0089182Y0028457D01*
X0089074Y0028688D01*
X0088973Y0028921D01*
X0088877Y0029157D01*
X0088786Y0029395D01*
X0088702Y0029635D01*
X0088623Y0029877D01*
X0088550Y0030121D01*
X0088484Y0030367D01*
X0088423Y0030614D01*
X0088368Y0030862D01*
X0088319Y0031112D01*
X0088276Y0031363D01*
X0088240Y0031615D01*
X0088209Y0031867D01*
X0088185Y0032121D01*
X0088167Y0032374D01*
X0088155Y0032629D01*
X0088149Y0032883D01*
X0088149Y0033138D01*
X0088155Y0033392D01*
X0088168Y0033646D01*
X0088187Y0033900D01*
X0088212Y0034153D01*
X0088243Y0034406D01*
X0088280Y0034658D01*
X0088323Y0034908D01*
X0088372Y0035158D01*
X0088427Y0035407D01*
X0088489Y0035654D01*
X0088556Y0035899D01*
X0088629Y0036143D01*
X0088708Y0036385D01*
X0088793Y0036624D01*
X0088884Y0036862D01*
X0088981Y0037098D01*
X0089083Y0037331D01*
X0089191Y0037561D01*
X0089304Y0037789D01*
X0089423Y0038014D01*
X0089547Y0038236D01*
X0089676Y0038455D01*
X0089811Y0038671D01*
X0089951Y0038884D01*
X0090097Y0039093D01*
X0090247Y0039298D01*
X0090402Y0039500D01*
X0089776Y0034000D02*
X0088197Y0034000D01*
X0114947Y0045800D02*
X0114947Y0047501D01*
X0115514Y0048069D01*
X0117783Y0048069D01*
X0118350Y0047501D01*
X0118350Y0045800D01*
X0114947Y0045800D01*
X0116081Y0050050D02*
X0116081Y0051185D01*
X0116649Y0051752D01*
X0118350Y0051752D01*
X0118350Y0050050D01*
X0117783Y0049483D01*
X0117216Y0050050D01*
X0117216Y0051752D01*
X0118350Y0053166D02*
X0116081Y0053166D01*
X0116081Y0054868D01*
X0116649Y0055435D01*
X0118350Y0055435D01*
X0119484Y0056849D02*
X0119484Y0057417D01*
X0118917Y0057984D01*
X0116081Y0057984D01*
X0114947Y0057984D02*
X0114380Y0057984D01*
X0116081Y0059872D02*
X0116649Y0059305D01*
X0117783Y0059305D01*
X0118350Y0059872D01*
X0118350Y0061006D01*
X0117783Y0061573D01*
X0116649Y0061573D01*
X0116081Y0061006D01*
X0116081Y0059872D01*
X0116081Y0062988D02*
X0118350Y0064122D01*
X0116081Y0065257D01*
X0116081Y0066671D02*
X0116081Y0067238D01*
X0118350Y0067238D01*
X0118350Y0066671D02*
X0118350Y0067805D01*
X0117783Y0069127D02*
X0116649Y0069127D01*
X0116081Y0069694D01*
X0116081Y0071395D01*
X0118350Y0071395D02*
X0118350Y0069694D01*
X0117783Y0069127D01*
X0114947Y0067238D02*
X0114380Y0067238D01*
X0115514Y0076493D02*
X0114947Y0077060D01*
X0114947Y0078194D01*
X0115514Y0078761D01*
X0116081Y0078761D01*
X0118350Y0076493D01*
X0118350Y0078761D01*
X0117783Y0080176D02*
X0115514Y0082445D01*
X0117783Y0082445D01*
X0118350Y0081877D01*
X0118350Y0080743D01*
X0117783Y0080176D01*
X0115514Y0080176D01*
X0114947Y0080743D01*
X0114947Y0081877D01*
X0115514Y0082445D01*
X0116081Y0083859D02*
X0114947Y0084993D01*
X0118350Y0084993D01*
X0118350Y0083859D02*
X0118350Y0086128D01*
X0117783Y0087542D02*
X0118350Y0088109D01*
X0118350Y0089244D01*
X0117783Y0089811D01*
X0116649Y0089811D01*
X0116081Y0089244D01*
X0116081Y0088677D01*
X0116649Y0087542D01*
X0114947Y0087542D01*
X0114947Y0089811D01*
X0132650Y0105500D02*
X0132652Y0105654D01*
X0132658Y0105808D01*
X0132668Y0105962D01*
X0132682Y0106116D01*
X0132699Y0106269D01*
X0132721Y0106421D01*
X0132747Y0106573D01*
X0132776Y0106725D01*
X0132810Y0106875D01*
X0132847Y0107025D01*
X0132888Y0107173D01*
X0132933Y0107321D01*
X0132982Y0107467D01*
X0133034Y0107612D01*
X0133090Y0107755D01*
X0133150Y0107898D01*
X0133213Y0108038D01*
X0133280Y0108177D01*
X0133351Y0108314D01*
X0133425Y0108449D01*
X0133502Y0108582D01*
X0133583Y0108714D01*
X0133667Y0108843D01*
X0133755Y0108970D01*
X0133846Y0109094D01*
X0133939Y0109216D01*
X0134037Y0109336D01*
X0134137Y0109453D01*
X0134240Y0109568D01*
X0134346Y0109680D01*
X0134454Y0109789D01*
X0134566Y0109895D01*
X0134680Y0109999D01*
X0134797Y0110099D01*
X0134916Y0110197D01*
X0135038Y0110291D01*
X0135163Y0110382D01*
X0144650Y0105500D02*
X0144648Y0105348D01*
X0144642Y0105197D01*
X0144633Y0105046D01*
X0144619Y0104894D01*
X0144602Y0104744D01*
X0144581Y0104594D01*
X0144556Y0104444D01*
X0144528Y0104295D01*
X0144495Y0104147D01*
X0144459Y0104000D01*
X0144420Y0103853D01*
X0144376Y0103708D01*
X0144329Y0103564D01*
X0144278Y0103421D01*
X0144224Y0103280D01*
X0144166Y0103139D01*
X0144105Y0103001D01*
X0144040Y0102864D01*
X0143971Y0102728D01*
X0143900Y0102595D01*
X0143825Y0102463D01*
X0143746Y0102333D01*
X0143665Y0102206D01*
X0143580Y0102080D01*
X0143492Y0101956D01*
X0143401Y0101835D01*
X0143307Y0101716D01*
X0143209Y0101600D01*
X0143109Y0101486D01*
X0143007Y0101374D01*
X0142901Y0101266D01*
X0142793Y0101160D01*
X0142682Y0101056D01*
X0142568Y0100956D01*
X0142452Y0100858D01*
X0142333Y0100764D01*
X0144650Y0105500D02*
X0144648Y0105652D01*
X0144642Y0105803D01*
X0144633Y0105954D01*
X0144619Y0106106D01*
X0144602Y0106256D01*
X0144581Y0106406D01*
X0144556Y0106556D01*
X0144528Y0106705D01*
X0144495Y0106853D01*
X0144459Y0107000D01*
X0144420Y0107147D01*
X0144376Y0107292D01*
X0144329Y0107436D01*
X0144278Y0107579D01*
X0144224Y0107720D01*
X0144166Y0107861D01*
X0144105Y0107999D01*
X0144040Y0108136D01*
X0143971Y0108272D01*
X0143900Y0108405D01*
X0143825Y0108537D01*
X0143746Y0108667D01*
X0143665Y0108794D01*
X0143580Y0108920D01*
X0143492Y0109044D01*
X0143401Y0109165D01*
X0143307Y0109284D01*
X0143209Y0109400D01*
X0143109Y0109514D01*
X0143007Y0109626D01*
X0142901Y0109734D01*
X0142793Y0109840D01*
X0142682Y0109944D01*
X0142568Y0110044D01*
X0142452Y0110142D01*
X0142333Y0110236D01*
X0132650Y0105500D02*
X0132652Y0105350D01*
X0132658Y0105199D01*
X0132667Y0105049D01*
X0132680Y0104900D01*
X0132697Y0104750D01*
X0132718Y0104601D01*
X0132742Y0104453D01*
X0132770Y0104305D01*
X0132802Y0104158D01*
X0132837Y0104012D01*
X0132877Y0103867D01*
X0132919Y0103723D01*
X0132966Y0103580D01*
X0133016Y0103438D01*
X0133069Y0103297D01*
X0133126Y0103158D01*
X0133186Y0103020D01*
X0133250Y0102884D01*
X0133317Y0102750D01*
X0133388Y0102617D01*
X0133462Y0102486D01*
X0133539Y0102357D01*
X0133620Y0102230D01*
X0133703Y0102105D01*
X0133790Y0101982D01*
X0133879Y0101861D01*
X0133972Y0101743D01*
X0134068Y0101627D01*
X0134166Y0101513D01*
X0134267Y0101402D01*
X0134372Y0101293D01*
X0134478Y0101188D01*
X0134588Y0101084D01*
X0134700Y0100984D01*
X0134814Y0100886D01*
X0134931Y0100792D01*
X0135050Y0100700D01*
X0141447Y0039385D02*
X0143716Y0037117D01*
X0143149Y0037684D02*
X0144850Y0039385D01*
X0144850Y0037117D02*
X0141447Y0037117D01*
X0142014Y0035702D02*
X0141447Y0035135D01*
X0141447Y0034001D01*
X0142014Y0033434D01*
X0144283Y0033434D01*
X0144850Y0034001D01*
X0144850Y0035135D01*
X0144283Y0035702D01*
X0144283Y0032019D02*
X0141447Y0032019D01*
X0141447Y0029751D02*
X0144283Y0029751D01*
X0144850Y0030318D01*
X0144850Y0031452D01*
X0144283Y0032019D01*
X0144850Y0028336D02*
X0141447Y0028336D01*
X0143149Y0028336D02*
X0143149Y0026067D01*
X0144850Y0026067D02*
X0141447Y0026067D01*
X0142014Y0024653D02*
X0141447Y0024086D01*
X0141447Y0022951D01*
X0142014Y0022384D01*
X0144283Y0022384D01*
X0144850Y0022951D01*
X0144850Y0024086D01*
X0144283Y0024653D01*
X0138600Y0023567D02*
X0136331Y0023567D01*
X0135197Y0024702D01*
X0136331Y0025836D01*
X0138600Y0025836D01*
X0136899Y0025836D02*
X0136899Y0023567D01*
X0135197Y0027251D02*
X0135197Y0029519D01*
X0135197Y0028385D02*
X0138600Y0028385D01*
X0138600Y0030934D02*
X0136331Y0033202D01*
X0135764Y0033202D01*
X0135197Y0032635D01*
X0135197Y0031501D01*
X0135764Y0030934D01*
X0138600Y0030934D02*
X0138600Y0033202D01*
X0138033Y0034617D02*
X0138600Y0035184D01*
X0138600Y0036318D01*
X0138033Y0036885D01*
X0137466Y0036885D01*
X0136899Y0036318D01*
X0136899Y0034617D01*
X0138033Y0034617D01*
X0136899Y0034617D02*
X0135764Y0035751D01*
X0135197Y0036885D01*
X0127150Y0036000D02*
X0126150Y0036000D01*
X0126150Y0035000D01*
X0126150Y0036000D02*
X0125150Y0036000D01*
X0126150Y0036000D02*
X0126150Y0037000D01*
X0111150Y0030500D02*
X0111153Y0030745D01*
X0111162Y0030991D01*
X0111177Y0031236D01*
X0111198Y0031480D01*
X0111225Y0031724D01*
X0111258Y0031967D01*
X0111297Y0032210D01*
X0111342Y0032451D01*
X0111393Y0032691D01*
X0111450Y0032930D01*
X0111512Y0033167D01*
X0111581Y0033403D01*
X0111655Y0033637D01*
X0111735Y0033869D01*
X0111820Y0034099D01*
X0111911Y0034327D01*
X0112008Y0034552D01*
X0112110Y0034776D01*
X0112218Y0034996D01*
X0112331Y0035214D01*
X0112449Y0035429D01*
X0112573Y0035641D01*
X0112701Y0035850D01*
X0112835Y0036056D01*
X0112974Y0036258D01*
X0113118Y0036457D01*
X0113267Y0036652D01*
X0113420Y0036844D01*
X0113578Y0037032D01*
X0113740Y0037216D01*
X0113908Y0037395D01*
X0114079Y0037571D01*
X0114255Y0037742D01*
X0114434Y0037910D01*
X0114618Y0038072D01*
X0114806Y0038230D01*
X0114998Y0038383D01*
X0115193Y0038532D01*
X0115392Y0038676D01*
X0115594Y0038815D01*
X0115800Y0038949D01*
X0116009Y0039077D01*
X0116221Y0039201D01*
X0116436Y0039319D01*
X0116654Y0039432D01*
X0116874Y0039540D01*
X0117098Y0039642D01*
X0117323Y0039739D01*
X0117551Y0039830D01*
X0117781Y0039915D01*
X0118013Y0039995D01*
X0118247Y0040069D01*
X0118483Y0040138D01*
X0118720Y0040200D01*
X0118959Y0040257D01*
X0119199Y0040308D01*
X0119440Y0040353D01*
X0119683Y0040392D01*
X0119926Y0040425D01*
X0120170Y0040452D01*
X0120414Y0040473D01*
X0120659Y0040488D01*
X0120905Y0040497D01*
X0121150Y0040500D01*
X0121395Y0040497D01*
X0121641Y0040488D01*
X0121886Y0040473D01*
X0122130Y0040452D01*
X0122374Y0040425D01*
X0122617Y0040392D01*
X0122860Y0040353D01*
X0123101Y0040308D01*
X0123341Y0040257D01*
X0123580Y0040200D01*
X0123817Y0040138D01*
X0124053Y0040069D01*
X0124287Y0039995D01*
X0124519Y0039915D01*
X0124749Y0039830D01*
X0124977Y0039739D01*
X0125202Y0039642D01*
X0125426Y0039540D01*
X0125646Y0039432D01*
X0125864Y0039319D01*
X0126079Y0039201D01*
X0126291Y0039077D01*
X0126500Y0038949D01*
X0126706Y0038815D01*
X0126908Y0038676D01*
X0127107Y0038532D01*
X0127302Y0038383D01*
X0127494Y0038230D01*
X0127682Y0038072D01*
X0127866Y0037910D01*
X0128045Y0037742D01*
X0128221Y0037571D01*
X0128392Y0037395D01*
X0128560Y0037216D01*
X0128722Y0037032D01*
X0128880Y0036844D01*
X0129033Y0036652D01*
X0129182Y0036457D01*
X0129326Y0036258D01*
X0129465Y0036056D01*
X0129599Y0035850D01*
X0129727Y0035641D01*
X0129851Y0035429D01*
X0129969Y0035214D01*
X0130082Y0034996D01*
X0130190Y0034776D01*
X0130292Y0034552D01*
X0130389Y0034327D01*
X0130480Y0034099D01*
X0130565Y0033869D01*
X0130645Y0033637D01*
X0130719Y0033403D01*
X0130788Y0033167D01*
X0130850Y0032930D01*
X0130907Y0032691D01*
X0130958Y0032451D01*
X0131003Y0032210D01*
X0131042Y0031967D01*
X0131075Y0031724D01*
X0131102Y0031480D01*
X0131123Y0031236D01*
X0131138Y0030991D01*
X0131147Y0030745D01*
X0131150Y0030500D01*
X0131147Y0030255D01*
X0131138Y0030009D01*
X0131123Y0029764D01*
X0131102Y0029520D01*
X0131075Y0029276D01*
X0131042Y0029033D01*
X0131003Y0028790D01*
X0130958Y0028549D01*
X0130907Y0028309D01*
X0130850Y0028070D01*
X0130788Y0027833D01*
X0130719Y0027597D01*
X0130645Y0027363D01*
X0130565Y0027131D01*
X0130480Y0026901D01*
X0130389Y0026673D01*
X0130292Y0026448D01*
X0130190Y0026224D01*
X0130082Y0026004D01*
X0129969Y0025786D01*
X0129851Y0025571D01*
X0129727Y0025359D01*
X0129599Y0025150D01*
X0129465Y0024944D01*
X0129326Y0024742D01*
X0129182Y0024543D01*
X0129033Y0024348D01*
X0128880Y0024156D01*
X0128722Y0023968D01*
X0128560Y0023784D01*
X0128392Y0023605D01*
X0128221Y0023429D01*
X0128045Y0023258D01*
X0127866Y0023090D01*
X0127682Y0022928D01*
X0127494Y0022770D01*
X0127302Y0022617D01*
X0127107Y0022468D01*
X0126908Y0022324D01*
X0126706Y0022185D01*
X0126500Y0022051D01*
X0126291Y0021923D01*
X0126079Y0021799D01*
X0125864Y0021681D01*
X0125646Y0021568D01*
X0125426Y0021460D01*
X0125202Y0021358D01*
X0124977Y0021261D01*
X0124749Y0021170D01*
X0124519Y0021085D01*
X0124287Y0021005D01*
X0124053Y0020931D01*
X0123817Y0020862D01*
X0123580Y0020800D01*
X0123341Y0020743D01*
X0123101Y0020692D01*
X0122860Y0020647D01*
X0122617Y0020608D01*
X0122374Y0020575D01*
X0122130Y0020548D01*
X0121886Y0020527D01*
X0121641Y0020512D01*
X0121395Y0020503D01*
X0121150Y0020500D01*
X0120905Y0020503D01*
X0120659Y0020512D01*
X0120414Y0020527D01*
X0120170Y0020548D01*
X0119926Y0020575D01*
X0119683Y0020608D01*
X0119440Y0020647D01*
X0119199Y0020692D01*
X0118959Y0020743D01*
X0118720Y0020800D01*
X0118483Y0020862D01*
X0118247Y0020931D01*
X0118013Y0021005D01*
X0117781Y0021085D01*
X0117551Y0021170D01*
X0117323Y0021261D01*
X0117098Y0021358D01*
X0116874Y0021460D01*
X0116654Y0021568D01*
X0116436Y0021681D01*
X0116221Y0021799D01*
X0116009Y0021923D01*
X0115800Y0022051D01*
X0115594Y0022185D01*
X0115392Y0022324D01*
X0115193Y0022468D01*
X0114998Y0022617D01*
X0114806Y0022770D01*
X0114618Y0022928D01*
X0114434Y0023090D01*
X0114255Y0023258D01*
X0114079Y0023429D01*
X0113908Y0023605D01*
X0113740Y0023784D01*
X0113578Y0023968D01*
X0113420Y0024156D01*
X0113267Y0024348D01*
X0113118Y0024543D01*
X0112974Y0024742D01*
X0112835Y0024944D01*
X0112701Y0025150D01*
X0112573Y0025359D01*
X0112449Y0025571D01*
X0112331Y0025786D01*
X0112218Y0026004D01*
X0112110Y0026224D01*
X0112008Y0026448D01*
X0111911Y0026673D01*
X0111820Y0026901D01*
X0111735Y0027131D01*
X0111655Y0027363D01*
X0111581Y0027597D01*
X0111512Y0027833D01*
X0111450Y0028070D01*
X0111393Y0028309D01*
X0111342Y0028549D01*
X0111297Y0028790D01*
X0111258Y0029033D01*
X0111225Y0029276D01*
X0111198Y0029520D01*
X0111177Y0029764D01*
X0111162Y0030009D01*
X0111153Y0030255D01*
X0111150Y0030500D01*
D12*
X0111839Y0023053D02*
X0111239Y0022453D01*
X0111839Y0023053D02*
X0113040Y0023053D01*
X0113641Y0022453D01*
X0113641Y0021852D01*
X0111239Y0019450D01*
X0113641Y0019450D01*
X0109957Y0020051D02*
X0109357Y0019450D01*
X0108156Y0019450D01*
X0107555Y0020051D01*
X0107555Y0022453D01*
X0108156Y0023053D01*
X0109357Y0023053D01*
X0109957Y0022453D01*
X0106301Y0023053D02*
X0105100Y0023053D01*
X0105701Y0023053D02*
X0105701Y0019450D01*
X0106301Y0019450D02*
X0105100Y0019450D01*
X0090185Y0019950D02*
X0087783Y0019950D01*
X0090185Y0022352D01*
X0090185Y0022953D01*
X0089585Y0023553D01*
X0088384Y0023553D01*
X0087783Y0022953D01*
X0086502Y0022953D02*
X0085902Y0023553D01*
X0084701Y0023553D01*
X0084100Y0022953D01*
X0084100Y0020551D01*
X0084701Y0019950D01*
X0085902Y0019950D01*
X0086502Y0020551D01*
X0073185Y0039450D02*
X0070783Y0039450D01*
X0071984Y0039450D02*
X0071984Y0043053D01*
X0070783Y0041852D01*
X0069502Y0042453D02*
X0068902Y0043053D01*
X0067701Y0043053D01*
X0067100Y0042453D01*
X0067100Y0040051D01*
X0067701Y0039450D01*
X0068902Y0039450D01*
X0069502Y0040051D01*
X0105600Y0040950D02*
X0106801Y0040950D01*
X0106201Y0040950D02*
X0106201Y0044553D01*
X0106801Y0044553D02*
X0105600Y0044553D01*
X0108055Y0043953D02*
X0108055Y0041551D01*
X0108656Y0040950D01*
X0109857Y0040950D01*
X0110457Y0041551D01*
X0111739Y0040950D02*
X0114141Y0040950D01*
X0112940Y0040950D02*
X0112940Y0044553D01*
X0111739Y0043352D01*
X0110457Y0043953D02*
X0109857Y0044553D01*
X0108656Y0044553D01*
X0108055Y0043953D01*
X0128350Y0042453D02*
X0128350Y0040051D01*
X0128951Y0039450D01*
X0130152Y0039450D01*
X0130752Y0040051D01*
X0132033Y0040051D02*
X0132634Y0039450D01*
X0133835Y0039450D01*
X0134435Y0040051D01*
X0134435Y0040651D01*
X0133835Y0041252D01*
X0133234Y0041252D01*
X0133835Y0041252D02*
X0134435Y0041852D01*
X0134435Y0042453D01*
X0133835Y0043053D01*
X0132634Y0043053D01*
X0132033Y0042453D01*
X0130752Y0042453D02*
X0130152Y0043053D01*
X0128951Y0043053D01*
X0128350Y0042453D01*
X0059935Y0090050D02*
X0057533Y0090050D01*
X0058734Y0090050D02*
X0058734Y0093653D01*
X0057533Y0092452D01*
X0056252Y0093653D02*
X0053850Y0091251D01*
X0054451Y0091852D02*
X0056252Y0090050D01*
X0053850Y0090050D02*
X0053850Y0093653D01*
X0054786Y0113350D02*
X0053585Y0114551D01*
X0054185Y0114551D02*
X0052384Y0114551D01*
X0052384Y0113350D02*
X0052384Y0116953D01*
X0054185Y0116953D01*
X0054786Y0116353D01*
X0054786Y0115152D01*
X0054185Y0114551D01*
X0056067Y0113350D02*
X0058469Y0115752D01*
X0058469Y0116353D01*
X0057868Y0116953D01*
X0056667Y0116953D01*
X0056067Y0116353D01*
X0056067Y0113350D02*
X0058469Y0113350D01*
X0062384Y0113350D02*
X0062384Y0116953D01*
X0064185Y0116953D01*
X0064786Y0116353D01*
X0064786Y0115152D01*
X0064185Y0114551D01*
X0062384Y0114551D01*
X0063585Y0114551D02*
X0064786Y0113350D01*
X0066067Y0113350D02*
X0068469Y0113350D01*
X0067268Y0113350D02*
X0067268Y0116953D01*
X0066067Y0115752D01*
X0119884Y0116953D02*
X0119884Y0113350D01*
X0119884Y0114551D02*
X0121685Y0114551D01*
X0122286Y0115152D01*
X0122286Y0116353D01*
X0121685Y0116953D01*
X0119884Y0116953D01*
X0121085Y0114551D02*
X0122286Y0113350D01*
X0123567Y0113951D02*
X0124167Y0113350D01*
X0125368Y0113350D01*
X0125969Y0113951D01*
X0125969Y0114551D01*
X0125368Y0115152D01*
X0124768Y0115152D01*
X0125368Y0115152D02*
X0125969Y0115752D01*
X0125969Y0116353D01*
X0125368Y0116953D01*
X0124167Y0116953D01*
X0123567Y0116353D01*
X0131617Y0117553D02*
X0131617Y0113950D01*
X0134019Y0113950D01*
X0135301Y0113950D02*
X0137703Y0113950D01*
X0138984Y0113950D02*
X0140785Y0113950D01*
X0141386Y0114551D01*
X0141386Y0116953D01*
X0140785Y0117553D01*
X0138984Y0117553D01*
X0138984Y0113950D01*
X0136502Y0115752D02*
X0135301Y0115752D01*
X0135301Y0117553D02*
X0135301Y0113950D01*
X0135301Y0117553D02*
X0137703Y0117553D01*
X0142667Y0116352D02*
X0143868Y0117553D01*
X0143868Y0113950D01*
X0142667Y0113950D02*
X0145069Y0113950D01*
D13*
X0081650Y0031800D02*
X0075650Y0031800D01*
X0075650Y0029300D02*
X0081650Y0029300D01*
D14*
X0040127Y0044943D02*
X0040127Y0047945D01*
X0040127Y0046444D02*
X0035623Y0046444D01*
X0037125Y0044943D01*
X0037875Y0088270D02*
X0035623Y0088270D01*
X0035623Y0091272D01*
X0037125Y0090522D02*
X0037875Y0091272D01*
X0039377Y0091272D01*
X0040127Y0090522D01*
X0040127Y0089020D01*
X0039377Y0088270D01*
X0037875Y0088270D02*
X0037125Y0089771D01*
X0037125Y0090522D01*
D15*
X0027194Y0068000D03*
D16*
X0045028Y0068000D03*
D17*
X0142619Y0098554D02*
X0142788Y0098653D01*
X0142954Y0098757D01*
X0143118Y0098864D01*
X0143279Y0098975D01*
X0143437Y0099090D01*
X0143592Y0099209D01*
X0143745Y0099332D01*
X0143894Y0099458D01*
X0144040Y0099588D01*
X0144183Y0099722D01*
X0144323Y0099859D01*
X0144459Y0099999D01*
X0144592Y0100143D01*
X0144721Y0100290D01*
X0144847Y0100440D01*
X0144968Y0100593D01*
X0145087Y0100749D01*
X0145201Y0100908D01*
X0145311Y0101069D01*
X0145417Y0101234D01*
X0145520Y0101400D01*
X0145618Y0101570D01*
X0145712Y0101741D01*
X0145802Y0101915D01*
X0145887Y0102091D01*
X0145969Y0102269D01*
X0146045Y0102449D01*
X0146118Y0102631D01*
X0146186Y0102814D01*
X0146249Y0102999D01*
X0146308Y0103186D01*
X0146362Y0103374D01*
X0146412Y0103563D01*
X0146457Y0103753D01*
X0146497Y0103945D01*
X0146533Y0104137D01*
X0146564Y0104330D01*
X0146590Y0104524D01*
X0146612Y0104719D01*
X0146628Y0104914D01*
X0146640Y0105109D01*
X0146648Y0105305D01*
X0146650Y0105500D01*
X0134885Y0098441D02*
X0134717Y0098534D01*
X0134551Y0098630D01*
X0134387Y0098730D01*
X0134226Y0098835D01*
X0134067Y0098943D01*
X0133911Y0099055D01*
X0133757Y0099171D01*
X0133607Y0099290D01*
X0133459Y0099413D01*
X0133314Y0099539D01*
X0133173Y0099669D01*
X0133034Y0099802D01*
X0132899Y0099939D01*
X0132767Y0100079D01*
X0132639Y0100221D01*
X0132514Y0100367D01*
X0132392Y0100516D01*
X0132274Y0100668D01*
X0132160Y0100822D01*
X0132050Y0100980D01*
X0131943Y0101139D01*
X0131840Y0101302D01*
X0131741Y0101467D01*
X0131646Y0101634D01*
X0131556Y0101803D01*
X0131469Y0101974D01*
X0131386Y0102148D01*
X0131308Y0102323D01*
X0131234Y0102501D01*
X0131164Y0102680D01*
X0131098Y0102860D01*
X0131037Y0103042D01*
X0130980Y0103226D01*
X0130928Y0103411D01*
X0130880Y0103597D01*
X0130836Y0103784D01*
X0130797Y0103972D01*
X0130763Y0104161D01*
X0130733Y0104351D01*
X0130708Y0104541D01*
X0130687Y0104732D01*
X0130671Y0104924D01*
X0130659Y0105116D01*
X0130652Y0105308D01*
X0130650Y0105500D01*
X0143818Y0111607D02*
X0143964Y0111480D01*
X0144106Y0111351D01*
X0144246Y0111217D01*
X0144382Y0111081D01*
X0144515Y0110941D01*
X0144645Y0110798D01*
X0144771Y0110651D01*
X0144893Y0110502D01*
X0145012Y0110350D01*
X0145127Y0110195D01*
X0145239Y0110038D01*
X0145346Y0109878D01*
X0145450Y0109715D01*
X0145549Y0109549D01*
X0145645Y0109382D01*
X0145737Y0109212D01*
X0145824Y0109040D01*
X0145908Y0108866D01*
X0145987Y0108690D01*
X0146061Y0108512D01*
X0146132Y0108332D01*
X0146198Y0108151D01*
X0146260Y0107968D01*
X0146317Y0107784D01*
X0146370Y0107598D01*
X0146418Y0107411D01*
X0146462Y0107223D01*
X0146501Y0107034D01*
X0146536Y0106844D01*
X0146566Y0106654D01*
X0146592Y0106463D01*
X0146613Y0106271D01*
X0146629Y0106078D01*
X0146641Y0105886D01*
X0146648Y0105693D01*
X0146650Y0105500D01*
X0133528Y0111646D02*
X0133380Y0111519D01*
X0133235Y0111389D01*
X0133094Y0111256D01*
X0132955Y0111119D01*
X0132820Y0110979D01*
X0132689Y0110835D01*
X0132561Y0110688D01*
X0132436Y0110539D01*
X0132315Y0110386D01*
X0132198Y0110231D01*
X0132085Y0110072D01*
X0131976Y0109911D01*
X0131871Y0109747D01*
X0131769Y0109581D01*
X0131672Y0109412D01*
X0131579Y0109242D01*
X0131490Y0109068D01*
X0131405Y0108893D01*
X0131325Y0108716D01*
X0131249Y0108537D01*
X0131177Y0108356D01*
X0131110Y0108173D01*
X0131047Y0107989D01*
X0130989Y0107803D01*
X0130935Y0107616D01*
X0130886Y0107428D01*
X0130841Y0107238D01*
X0130801Y0107048D01*
X0130766Y0106856D01*
X0130735Y0106664D01*
X0130709Y0106471D01*
X0130688Y0106277D01*
X0130671Y0106083D01*
X0130659Y0105889D01*
X0130652Y0105695D01*
X0130650Y0105500D01*
D18*
X0123650Y0105000D02*
X0123650Y0106000D01*
X0066150Y0106000D02*
X0066150Y0105000D01*
X0056150Y0105000D02*
X0056150Y0106000D01*
D19*
X0119900Y0092144D02*
X0119900Y0081484D01*
X0148650Y0081484D01*
X0148650Y0054319D01*
X0119900Y0054319D01*
X0119900Y0043856D01*
X0148650Y0043856D01*
X0148650Y0092144D02*
X0119900Y0092144D01*
M02*
