G75*
%MOIN*%
%OFA0B0*%
%FSLAX25Y25*%
%IPPOS*%
%LPD*%
%AMOC8*
5,1,8,0,0,1.08239X$1,22.5*
%
%ADD10OC8,0.06300*%
%ADD11C,0.06300*%
%ADD12OC8,0.06600*%
%ADD13C,0.04800*%
%ADD14R,0.13780X0.06693*%
%ADD15OC8,0.04800*%
%ADD16R,0.23622X0.03937*%
%ADD17C,0.01600*%
%ADD18C,0.01000*%
%ADD19R,0.05600X0.05600*%
%ADD20C,0.05000*%
D10*
X0061150Y0035500D03*
X0121150Y0025500D03*
D11*
X0121150Y0035500D03*
X0061150Y0025500D03*
D12*
X0078650Y0025500D03*
X0078650Y0035500D03*
X0093650Y0033000D03*
X0098650Y0025500D03*
X0103650Y0033000D03*
D13*
X0106250Y0050500D02*
X0111050Y0050500D01*
X0111050Y0060500D02*
X0106250Y0060500D01*
X0106250Y0070500D02*
X0111050Y0070500D01*
X0111050Y0080500D02*
X0106250Y0080500D01*
X0106250Y0090500D02*
X0111050Y0090500D01*
X0111050Y0100500D02*
X0106250Y0100500D01*
X0106250Y0110500D02*
X0111050Y0110500D01*
X0081050Y0110500D02*
X0076250Y0110500D01*
X0076250Y0100500D02*
X0081050Y0100500D01*
X0081050Y0090500D02*
X0076250Y0090500D01*
X0076250Y0080500D02*
X0081050Y0080500D01*
X0081050Y0070500D02*
X0076250Y0070500D01*
X0076250Y0060500D02*
X0081050Y0060500D01*
X0081050Y0050500D02*
X0076250Y0050500D01*
D14*
X0055600Y0051800D03*
X0055600Y0062600D03*
X0055600Y0073400D03*
X0055600Y0084200D03*
D15*
X0056150Y0100500D03*
X0066150Y0100500D03*
X0066150Y0110500D03*
X0056150Y0110500D03*
X0123650Y0110500D03*
X0123650Y0100500D03*
X0138650Y0100500D03*
X0138650Y0110500D03*
D16*
X0134900Y0075874D03*
X0134900Y0068000D03*
X0134900Y0060126D03*
D17*
X0056150Y0028000D02*
X0053650Y0030500D01*
X0053650Y0038000D01*
X0056150Y0040500D01*
X0066150Y0040500D01*
X0071150Y0045500D01*
X0071150Y0053000D01*
X0073650Y0055500D01*
X0084900Y0055500D01*
X0087400Y0058000D01*
X0087400Y0063000D01*
X0084900Y0065500D01*
X0068650Y0065500D01*
X0065750Y0062600D01*
X0055600Y0062600D01*
X0055600Y0051800D02*
X0062450Y0051800D01*
X0071150Y0060500D01*
X0078650Y0060500D01*
X0078650Y0050500D02*
X0086150Y0050500D01*
X0086150Y0045500D01*
X0083650Y0043000D01*
X0083650Y0038000D01*
X0081150Y0035500D01*
X0061150Y0035500D01*
X0058650Y0028000D02*
X0056150Y0028000D01*
X0058650Y0028000D02*
X0061150Y0025500D01*
X0063650Y0028000D01*
X0078650Y0028000D01*
X0081150Y0030500D01*
X0087400Y0030500D01*
X0089900Y0033000D01*
X0089900Y0045500D01*
X0094900Y0050500D01*
X0094900Y0071750D01*
X0091150Y0075500D01*
X0091150Y0088000D01*
X0083650Y0095500D01*
X0053650Y0095500D01*
X0051150Y0098000D01*
X0051150Y0113000D01*
X0053650Y0115500D01*
X0118650Y0115500D01*
X0123650Y0110500D01*
X0121150Y0105500D02*
X0128650Y0105500D01*
X0133650Y0110500D01*
X0133650Y0100500D02*
X0123650Y0100500D01*
X0121150Y0105500D02*
X0116150Y0110500D01*
X0108650Y0110500D01*
X0113650Y0105500D02*
X0098650Y0105500D01*
X0096150Y0108000D01*
X0088650Y0108000D01*
X0086150Y0105500D01*
X0086150Y0098000D01*
X0096150Y0088000D01*
X0096150Y0076750D01*
X0099900Y0073000D01*
X0099900Y0058000D01*
X0102400Y0055500D01*
X0113650Y0055500D01*
X0116150Y0053000D01*
X0116150Y0035500D01*
X0121150Y0035500D01*
X0116150Y0035500D02*
X0113650Y0033000D01*
X0103650Y0033000D01*
X0098650Y0025500D02*
X0121150Y0025500D01*
X0108650Y0050500D02*
X0094900Y0050500D01*
X0091150Y0055500D02*
X0086150Y0050500D01*
X0091150Y0055500D02*
X0091150Y0069250D01*
X0084900Y0075500D01*
X0066150Y0075500D01*
X0064050Y0073400D01*
X0055600Y0073400D01*
X0055600Y0084200D02*
X0064850Y0084200D01*
X0071150Y0090500D01*
X0078650Y0090500D01*
X0078650Y0100500D02*
X0066150Y0100500D01*
X0063650Y0105500D02*
X0066150Y0108000D01*
X0066150Y0110500D01*
X0066150Y0108000D02*
X0068650Y0105500D01*
X0086150Y0105500D01*
X0093650Y0100500D02*
X0093650Y0095500D01*
X0101150Y0088000D01*
X0101150Y0078000D01*
X0103650Y0075500D01*
X0113650Y0075500D01*
X0118650Y0070500D01*
X0118650Y0063000D01*
X0121524Y0060126D01*
X0134900Y0060126D01*
X0134900Y0075874D02*
X0120776Y0075874D01*
X0116150Y0080500D01*
X0116150Y0103000D01*
X0113650Y0105500D01*
X0063650Y0105500D02*
X0058650Y0105500D01*
X0056150Y0108000D01*
X0056150Y0110500D01*
X0089900Y0033000D02*
X0093650Y0033000D01*
X0078650Y0028000D02*
X0078650Y0025500D01*
D18*
X0082914Y0020996D02*
X0096366Y0020996D01*
X0096462Y0020900D02*
X0082818Y0020900D01*
X0084850Y0022932D01*
X0084850Y0026800D01*
X0088136Y0026800D01*
X0089496Y0027363D01*
X0090007Y0027875D01*
X0091082Y0026800D01*
X0093850Y0026800D01*
X0093850Y0025787D01*
X0098363Y0025787D01*
X0098363Y0025213D01*
X0093850Y0025213D01*
X0093850Y0023512D01*
X0096462Y0020900D01*
X0095368Y0021994D02*
X0083912Y0021994D01*
X0084850Y0022993D02*
X0094369Y0022993D01*
X0093850Y0023991D02*
X0084850Y0023991D01*
X0084850Y0024990D02*
X0093850Y0024990D01*
X0093850Y0025988D02*
X0084850Y0025988D01*
X0088586Y0026987D02*
X0090895Y0026987D01*
X0098937Y0025787D02*
X0103450Y0025787D01*
X0103450Y0026800D01*
X0106218Y0026800D01*
X0108718Y0029300D01*
X0114386Y0029300D01*
X0115746Y0029863D01*
X0116988Y0031106D01*
X0117723Y0030371D01*
X0118941Y0029867D01*
X0116500Y0027426D01*
X0116500Y0025800D01*
X0120850Y0025800D01*
X0120850Y0025200D01*
X0116500Y0025200D01*
X0116500Y0023574D01*
X0119174Y0020900D01*
X0100838Y0020900D01*
X0103450Y0023512D01*
X0103450Y0025213D01*
X0098937Y0025213D01*
X0098937Y0025787D01*
X0103450Y0025988D02*
X0116500Y0025988D01*
X0116500Y0024990D02*
X0103450Y0024990D01*
X0103450Y0023991D02*
X0116500Y0023991D01*
X0117081Y0022993D02*
X0102931Y0022993D01*
X0101932Y0021994D02*
X0118080Y0021994D01*
X0119078Y0020996D02*
X0100934Y0020996D01*
X0106405Y0026987D02*
X0116500Y0026987D01*
X0117059Y0027985D02*
X0107403Y0027985D01*
X0108402Y0028984D02*
X0118058Y0028984D01*
X0118662Y0029982D02*
X0115865Y0029982D01*
X0116863Y0030981D02*
X0117113Y0030981D01*
X0121450Y0025800D02*
X0125800Y0025800D01*
X0125800Y0027426D01*
X0123359Y0029867D01*
X0124577Y0030371D01*
X0126279Y0032073D01*
X0127200Y0034297D01*
X0127200Y0036703D01*
X0126279Y0038927D01*
X0124577Y0040629D01*
X0123847Y0040931D01*
X0145750Y0040931D01*
X0145750Y0020900D01*
X0123126Y0020900D01*
X0125800Y0023574D01*
X0125800Y0025200D01*
X0121450Y0025200D01*
X0121450Y0025800D01*
X0124242Y0028984D02*
X0145750Y0028984D01*
X0145750Y0029982D02*
X0123638Y0029982D01*
X0125187Y0030981D02*
X0145750Y0030981D01*
X0145750Y0031979D02*
X0126185Y0031979D01*
X0126654Y0032978D02*
X0145750Y0032978D01*
X0145750Y0033976D02*
X0127067Y0033976D01*
X0127200Y0034975D02*
X0145750Y0034975D01*
X0145750Y0035973D02*
X0127200Y0035973D01*
X0127089Y0036972D02*
X0145750Y0036972D01*
X0145750Y0037970D02*
X0126675Y0037970D01*
X0126237Y0038969D02*
X0145750Y0038969D01*
X0145750Y0039967D02*
X0125239Y0039967D01*
X0125241Y0027985D02*
X0145750Y0027985D01*
X0145750Y0026987D02*
X0125800Y0026987D01*
X0125800Y0025988D02*
X0145750Y0025988D01*
X0145750Y0024990D02*
X0125800Y0024990D01*
X0125800Y0023991D02*
X0145750Y0023991D01*
X0145750Y0022993D02*
X0125219Y0022993D01*
X0124220Y0021994D02*
X0145750Y0021994D01*
X0145750Y0020996D02*
X0123222Y0020996D01*
X0091200Y0052033D02*
X0086763Y0047596D01*
X0086200Y0046236D01*
X0086200Y0034533D01*
X0085867Y0034200D01*
X0083450Y0034200D01*
X0083450Y0035200D01*
X0078950Y0035200D01*
X0078950Y0035800D01*
X0078350Y0035800D01*
X0078350Y0040300D01*
X0076662Y0040300D01*
X0073850Y0037488D01*
X0073850Y0035800D01*
X0078350Y0035800D01*
X0078350Y0035200D01*
X0073850Y0035200D01*
X0073850Y0033512D01*
X0075662Y0031700D01*
X0063926Y0031700D01*
X0065800Y0033574D01*
X0065800Y0035200D01*
X0061450Y0035200D01*
X0061450Y0035800D01*
X0065800Y0035800D01*
X0065800Y0036800D01*
X0066886Y0036800D01*
X0068246Y0037363D01*
X0069287Y0038404D01*
X0074287Y0043404D01*
X0074850Y0044764D01*
X0074850Y0046859D01*
X0075112Y0046750D01*
X0075866Y0046600D01*
X0078350Y0046600D01*
X0078350Y0050200D01*
X0078950Y0050200D01*
X0078950Y0050800D01*
X0084950Y0050800D01*
X0084950Y0050884D01*
X0084800Y0051638D01*
X0084733Y0051800D01*
X0085636Y0051800D01*
X0086996Y0052363D01*
X0088037Y0053404D01*
X0090537Y0055904D01*
X0091100Y0057264D01*
X0091100Y0063736D01*
X0090537Y0065096D01*
X0089496Y0066137D01*
X0088037Y0067596D01*
X0086996Y0068637D01*
X0086159Y0068984D01*
X0086350Y0069446D01*
X0086350Y0071554D01*
X0085543Y0073502D01*
X0084052Y0074993D01*
X0082828Y0075500D01*
X0084052Y0076007D01*
X0085543Y0077498D01*
X0086350Y0079446D01*
X0086350Y0081554D01*
X0085543Y0083502D01*
X0084052Y0084993D01*
X0082828Y0085500D01*
X0084052Y0086007D01*
X0085543Y0087498D01*
X0085800Y0088118D01*
X0087450Y0086467D01*
X0087450Y0074764D01*
X0088013Y0073404D01*
X0089054Y0072363D01*
X0091200Y0070217D01*
X0091200Y0052033D01*
X0091117Y0051949D02*
X0085997Y0051949D01*
X0084937Y0050951D02*
X0090118Y0050951D01*
X0089120Y0049952D02*
X0084917Y0049952D01*
X0084950Y0050116D02*
X0084950Y0050200D01*
X0078950Y0050200D01*
X0078950Y0046600D01*
X0081434Y0046600D01*
X0082188Y0046750D01*
X0082897Y0047044D01*
X0083536Y0047471D01*
X0084079Y0048014D01*
X0084506Y0048653D01*
X0084800Y0049362D01*
X0084950Y0050116D01*
X0084631Y0048954D02*
X0088121Y0048954D01*
X0087123Y0047955D02*
X0084021Y0047955D01*
X0082687Y0046957D02*
X0086499Y0046957D01*
X0086200Y0045958D02*
X0074850Y0045958D01*
X0074850Y0044960D02*
X0086200Y0044960D01*
X0086200Y0043961D02*
X0074517Y0043961D01*
X0073845Y0042963D02*
X0086200Y0042963D01*
X0086200Y0041964D02*
X0072847Y0041964D01*
X0071848Y0040966D02*
X0086200Y0040966D01*
X0086200Y0039967D02*
X0080971Y0039967D01*
X0080638Y0040300D02*
X0078950Y0040300D01*
X0078950Y0035800D01*
X0083450Y0035800D01*
X0083450Y0037488D01*
X0080638Y0040300D01*
X0078950Y0039967D02*
X0078350Y0039967D01*
X0078350Y0038969D02*
X0078950Y0038969D01*
X0078950Y0037970D02*
X0078350Y0037970D01*
X0078350Y0036972D02*
X0078950Y0036972D01*
X0078950Y0035973D02*
X0078350Y0035973D01*
X0075331Y0038969D02*
X0069851Y0038969D01*
X0068853Y0037970D02*
X0074332Y0037970D01*
X0073850Y0036972D02*
X0067301Y0036972D01*
X0065800Y0035973D02*
X0073850Y0035973D01*
X0073850Y0034975D02*
X0065800Y0034975D01*
X0065800Y0033976D02*
X0073850Y0033976D01*
X0074384Y0032978D02*
X0065204Y0032978D01*
X0064205Y0031979D02*
X0075383Y0031979D01*
X0083450Y0034975D02*
X0086200Y0034975D01*
X0086200Y0035973D02*
X0083450Y0035973D01*
X0083450Y0036972D02*
X0086200Y0036972D01*
X0086200Y0037970D02*
X0082968Y0037970D01*
X0081969Y0038969D02*
X0086200Y0038969D01*
X0078950Y0046957D02*
X0078350Y0046957D01*
X0078350Y0047955D02*
X0078950Y0047955D01*
X0078950Y0048954D02*
X0078350Y0048954D01*
X0078350Y0049952D02*
X0078950Y0049952D01*
X0087580Y0052948D02*
X0091200Y0052948D01*
X0091200Y0053946D02*
X0088579Y0053946D01*
X0089578Y0054945D02*
X0091200Y0054945D01*
X0091200Y0055943D02*
X0090553Y0055943D01*
X0090967Y0056942D02*
X0091200Y0056942D01*
X0091200Y0057940D02*
X0091100Y0057940D01*
X0091100Y0058939D02*
X0091200Y0058939D01*
X0091200Y0059937D02*
X0091100Y0059937D01*
X0091100Y0060936D02*
X0091200Y0060936D01*
X0091200Y0061934D02*
X0091100Y0061934D01*
X0091100Y0062933D02*
X0091200Y0062933D01*
X0091200Y0063932D02*
X0091019Y0063932D01*
X0091200Y0064930D02*
X0090605Y0064930D01*
X0091200Y0065929D02*
X0089704Y0065929D01*
X0089496Y0066137D02*
X0089496Y0066137D01*
X0088706Y0066927D02*
X0091200Y0066927D01*
X0091200Y0067926D02*
X0087707Y0067926D01*
X0088037Y0067596D02*
X0088037Y0067596D01*
X0086302Y0068924D02*
X0091200Y0068924D01*
X0091200Y0069923D02*
X0086350Y0069923D01*
X0086350Y0070921D02*
X0090496Y0070921D01*
X0089498Y0071920D02*
X0086199Y0071920D01*
X0085785Y0072918D02*
X0088499Y0072918D01*
X0087801Y0073917D02*
X0085129Y0073917D01*
X0084130Y0074915D02*
X0087450Y0074915D01*
X0087450Y0075914D02*
X0083827Y0075914D01*
X0084957Y0076912D02*
X0087450Y0076912D01*
X0087450Y0077911D02*
X0085714Y0077911D01*
X0086128Y0078909D02*
X0087450Y0078909D01*
X0087450Y0079908D02*
X0086350Y0079908D01*
X0086350Y0080906D02*
X0087450Y0080906D01*
X0087450Y0081905D02*
X0086205Y0081905D01*
X0085791Y0082903D02*
X0087450Y0082903D01*
X0087450Y0083902D02*
X0085144Y0083902D01*
X0084145Y0084900D02*
X0087450Y0084900D01*
X0087450Y0085899D02*
X0083791Y0085899D01*
X0084943Y0086897D02*
X0087020Y0086897D01*
X0086022Y0087896D02*
X0085708Y0087896D01*
X0074472Y0085500D02*
X0073248Y0084993D01*
X0071757Y0083502D01*
X0070950Y0081554D01*
X0070950Y0079446D01*
X0071757Y0077498D01*
X0073248Y0076007D01*
X0074472Y0075500D01*
X0073248Y0074993D01*
X0071757Y0073502D01*
X0070950Y0071554D01*
X0070950Y0069446D01*
X0071052Y0069200D01*
X0067914Y0069200D01*
X0066554Y0068637D01*
X0065513Y0067596D01*
X0065112Y0067194D01*
X0064948Y0067589D01*
X0064132Y0068405D01*
X0063260Y0068766D01*
X0063411Y0068853D01*
X0063690Y0069133D01*
X0063888Y0069475D01*
X0063990Y0069856D01*
X0063990Y0072900D01*
X0056100Y0072900D01*
X0056100Y0073900D01*
X0063990Y0073900D01*
X0063990Y0076944D01*
X0063888Y0077325D01*
X0063690Y0077667D01*
X0063411Y0077947D01*
X0063260Y0078034D01*
X0064132Y0078395D01*
X0064948Y0079211D01*
X0065390Y0080277D01*
X0065390Y0080500D01*
X0065586Y0080500D01*
X0066946Y0081063D01*
X0072569Y0086686D01*
X0073248Y0086007D01*
X0074472Y0085500D01*
X0073509Y0085899D02*
X0071781Y0085899D01*
X0070783Y0084900D02*
X0073155Y0084900D01*
X0072156Y0083902D02*
X0069784Y0083902D01*
X0068786Y0082903D02*
X0071509Y0082903D01*
X0071095Y0081905D02*
X0067787Y0081905D01*
X0066567Y0080906D02*
X0070950Y0080906D01*
X0070950Y0079908D02*
X0065237Y0079908D01*
X0064647Y0078909D02*
X0071172Y0078909D01*
X0071586Y0077911D02*
X0063447Y0077911D01*
X0063990Y0076912D02*
X0072342Y0076912D01*
X0073473Y0075914D02*
X0063990Y0075914D01*
X0063990Y0074915D02*
X0073170Y0074915D01*
X0072171Y0073917D02*
X0063990Y0073917D01*
X0063990Y0071920D02*
X0071101Y0071920D01*
X0070950Y0070921D02*
X0063990Y0070921D01*
X0063990Y0069923D02*
X0070950Y0069923D01*
X0071515Y0072918D02*
X0056100Y0072918D01*
X0063482Y0068924D02*
X0067248Y0068924D01*
X0065843Y0067926D02*
X0064612Y0067926D01*
X0070850Y0039967D02*
X0076329Y0039967D01*
D19*
X0093650Y0100500D03*
D20*
X0133650Y0100500D02*
X0138650Y0100500D01*
X0143650Y0100500D01*
X0143650Y0110500D02*
X0138650Y0110500D01*
X0133650Y0110500D01*
M02*
