%
M48
M72
T01C0.02756
T02C0.03150
T03C0.03200
%
T01
X93650Y100500
T02
X93650Y33000
X98650Y25500
X103650Y33000
T03
X61150Y25500
X61150Y35500
X78650Y35500
X78650Y25500
X78650Y50500
X78650Y60500
X78650Y70500
X78650Y80500
X78650Y90500
X78650Y100500
X78650Y110500
X66150Y110500
X56150Y110500
X56150Y100500
X66150Y100500
X108650Y100500
X108650Y90500
X108650Y80500
X108650Y70500
X108650Y60500
X108650Y50500
X121150Y35500
X121150Y25500
X123650Y100500
X123650Y110500
X108650Y110500
X138650Y110500
X138650Y100500
M30
