G75*
%MOIN*%
%OFA0B0*%
%FSLAX25Y25*%
%IPPOS*%
%LPD*%
%AMOC8*
5,1,8,0,0,1.08239X$1,22.5*
%
%ADD10C,0.00000*%
%ADD11C,0.00500*%
%ADD12C,0.00050*%
D10*
X0048650Y0018000D02*
X0148650Y0018000D01*
X0148650Y0043850D01*
X0148650Y0092150D02*
X0148650Y0118000D01*
X0048650Y0118000D01*
X0048650Y0018000D01*
D11*
X0037950Y0049564D02*
X0036449Y0049564D01*
X0035698Y0050315D01*
X0035698Y0051816D01*
X0036449Y0052567D01*
X0037199Y0052567D01*
X0037950Y0051816D01*
X0037950Y0049564D01*
X0039451Y0051065D01*
X0040202Y0052567D01*
X0039451Y0081527D02*
X0038701Y0081527D01*
X0037950Y0082278D01*
X0037950Y0084530D01*
X0036449Y0084530D02*
X0039451Y0084530D01*
X0040202Y0083779D01*
X0040202Y0082278D01*
X0039451Y0081527D01*
X0036449Y0081527D02*
X0035698Y0082278D01*
X0035698Y0083779D01*
X0036449Y0084530D01*
D12*
X0119900Y0081484D02*
X0119900Y0092144D01*
X0148650Y0092144D01*
X0148650Y0081484D02*
X0148650Y0054319D01*
X0119900Y0054319D01*
X0119900Y0043856D01*
X0148650Y0043856D01*
X0148650Y0081484D02*
X0119900Y0081484D01*
M02*
